<svg viewBox="0 0 58 58" fill="none" xmlns="http://www.w3.org/2000/svg">
<path fill-rule="evenodd" clip-rule="evenodd" d="M160 29C160 45.0163 147.016 58 131 58C114.984 58 102 45.0163 102 29C102 12.9837 114.984 0 131 0C147.016 0 160 12.9837 160 29ZM124.711 19C123.728 19.0038 122.786 19.396 122.091 20.0911C121.396 20.7862 121.004 21.7279 121 22.7109V35.2891C121.004 36.2721 121.396 37.2138 122.091 37.9089C122.786 38.604 123.728 38.9962 124.711 39H137.289C138.272 38.9962 139.214 38.604 139.909 37.9089C140.604 37.2138 140.996 36.2721 141 35.2891V22.7109C140.996 21.7279 140.604 20.7862 139.909 20.0911C139.214 19.396 138.272 19.0038 137.289 19H124.711ZM137.289 20.8182C138.344 20.8182 139.182 21.6564 139.182 22.7109V35.2891C139.182 36.3436 138.344 37.1818 137.289 37.1818H124.711C124.462 37.1834 124.215 37.1355 123.985 37.0409C123.754 36.9464 123.545 36.807 123.369 36.631C123.193 36.4549 123.054 36.2456 122.959 36.0153C122.864 35.7849 122.817 35.5381 122.818 35.2891V22.7109C122.818 21.6564 123.656 20.8182 124.711 20.8182H137.289ZM136.327 26C136.725 26 136.808 26.1723 136.725 26.4063H136.724C136.558 27.0504 134.958 28.9473 134.958 28.9473C134.819 29.1346 134.763 29.2284 134.958 29.4389C135.027 29.5198 135.173 29.6404 135.34 29.7785C135.513 29.9205 135.707 30.0808 135.862 30.2351C136.426 30.7696 136.851 31.22 136.97 31.5303C137.078 31.8423 136.89 32 136.515 32H135.202C134.85 32 134.673 31.8342 134.291 31.4757C134.129 31.3238 133.93 31.1374 133.665 30.9144C132.886 30.2823 132.552 30.2 132.357 30.2C132.093 30.2 132.014 30.263 132.014 30.5789V31.5701C132.014 31.8423 131.911 32 131.076 32C129.685 32 128.157 31.289 127.072 29.9776C125.445 28.0571 125 26.6051 125 26.3129C125 26.1487 125.075 26 125.45 26H126.763C127.099 26 127.225 26.1234 127.349 26.4299C127.992 28.0044 129.074 29.3806 129.519 29.3806C129.686 29.3806 129.763 29.3159 129.763 28.9589V27.3311C129.733 26.8679 129.541 26.6675 129.398 26.5191C129.31 26.4275 129.241 26.3557 129.241 26.2541C129.241 26.1303 129.367 26 129.575 26H131.639C131.917 26 132.009 26.1251 132.009 26.4063V28.5959C132.009 28.8303 132.135 28.9121 132.218 28.9121C132.385 28.9121 132.524 28.8303 132.83 28.5723C133.776 27.6826 134.443 26.3129 134.443 26.3129C134.527 26.1487 134.681 26 135.015 26H136.327Z" fill="#1F1E1E"/>
</svg>
